#usda 1.0
(
    "Seeed reBot DevArm, converted from the MuJoCo Menagerie MJCF"
    customLayerData = {
        string creator = "MuJoCo USD Converter v0.4.0rc1"
    }
    defaultPrim = "seeed_rebot_devarm"
    kilogramsPerUnit = 1
    metersPerUnit = 1
    upAxis = "Z"
)

def Xform "seeed_rebot_devarm" (
    prepend apiSchemas = ["GeomModelAPI"]
    assetInfo = {
        string name = "seeed_rebot_devarm"
    }
    kind = "component"
    prepend payload = @./Payload/Contents.usda@
)
{
    float3[] extentsHint = [(-0.2596303, -0.1, -1.0949644e-11), (0.30171013, 0.1, 0.32075334), (3.4028235e38, 3.4028235e38, 3.4028235e38), (-3.4028235e38, -3.4028235e38, -3.4028235e38), (3.4028235e38, 3.4028235e38, 3.4028235e38), (-3.4028235e38, -3.4028235e38, -3.4028235e38), (-0.2596303, -0.1, -1.0949279e-11), (0.30171013, 0.1, 0.320746)]
}

def PhysicsScene "PhysicsScene" (
    prepend payload = @./Payload/Contents.usda@</PhysicsScene>
)
{
}

